<svg xmlns="http://www.w3.org/2000/svg" width="1664" height="936" viewBox="0 0 1664 936">
<defs>
 <linearGradient id="bg" x1="0" y1="0" x2="1" y2="1"><stop stop-color="#020806"/><stop offset=".5" stop-color="#07120e"/><stop offset="1" stop-color="#010302"/></linearGradient>
 <filter id="glow"><feGaussianBlur stdDeviation="5" result="b"/><feMerge><feMergeNode in="b"/><feMergeNode in="SourceGraphic"/></feMerge></filter>
 <pattern id="grid" width="42" height="42" patternUnits="userSpaceOnUse"><path d="M42 0H0V42" fill="none" stroke="#0d3025" stroke-width="1"/></pattern>
</defs>
<rect width="100%" height="100%" fill="url(#bg)"/>
<rect width="100%" height="100%" fill="url(#grid)" opacity=".6"/>
<rect x="34" y="34" width="1596" height="868" rx="18" fill="none" stroke="#00ff9d" stroke-opacity=".55" stroke-width="2"/>
<path d="M34 120H1630 M34 820H1630" stroke="#00ff9d" stroke-opacity=".18"/>
<text x="80" y="105" fill="#00ff9d" font-family="monospace" font-size="48" font-weight="700" letter-spacing="8" filter="url(#glow)">TECHNOLOGY UNIVERSE</text>
<text x="82" y="148" fill="#7eeac2" opacity=".8" font-family="monospace" font-size="19" letter-spacing="4">ARISH096 / CORE TECHNOLOGY MATRIX</text>
<text x="55.0" y="225" fill="#00ff9d" font-family="monospace" font-size="22" font-weight="700" letter-spacing="3">AI / ML</text>
<rect x="55.0" y="255" width="326.0" height="54" rx="8" fill="#03120c" stroke="#00ff9d" stroke-opacity=".22"/>
<circle cx="75.0" cy="282" r="5" fill="#00ff9d" filter="url(#glow)"/>
<text x="93.0" y="289" fill="#d4fff0" font-family="monospace" font-size="20">LLM</text>
<rect x="55.0" y="333" width="326.0" height="54" rx="8" fill="#03120c" stroke="#00ff9d" stroke-opacity=".22"/>
<circle cx="75.0" cy="360" r="5" fill="#00ff9d" filter="url(#glow)"/>
<text x="93.0" y="367" fill="#d4fff0" font-family="monospace" font-size="20">RAG</text>
<rect x="55.0" y="411" width="326.0" height="54" rx="8" fill="#03120c" stroke="#00ff9d" stroke-opacity=".22"/>
<circle cx="75.0" cy="438" r="5" fill="#00ff9d" filter="url(#glow)"/>
<text x="93.0" y="445" fill="#d4fff0" font-family="monospace" font-size="20">AI Agents</text>
<rect x="55.0" y="489" width="326.0" height="54" rx="8" fill="#03120c" stroke="#00ff9d" stroke-opacity=".22"/>
<circle cx="75.0" cy="516" r="5" fill="#00ff9d" filter="url(#glow)"/>
<text x="93.0" y="523" fill="#d4fff0" font-family="monospace" font-size="20">Prompt Engineering</text>
<path d="M446.0 205V760" stroke="#00ff9d" stroke-opacity=".18"/>
<text x="471.0" y="225" fill="#00ff9d" font-family="monospace" font-size="22" font-weight="700" letter-spacing="3">FULL STACK</text>
<rect x="471.0" y="255" width="326.0" height="54" rx="8" fill="#03120c" stroke="#00ff9d" stroke-opacity=".22"/>
<circle cx="491.0" cy="282" r="5" fill="#00ff9d" filter="url(#glow)"/>
<text x="509.0" y="289" fill="#d4fff0" font-family="monospace" font-size="20">React</text>
<rect x="471.0" y="333" width="326.0" height="54" rx="8" fill="#03120c" stroke="#00ff9d" stroke-opacity=".22"/>
<circle cx="491.0" cy="360" r="5" fill="#00ff9d" filter="url(#glow)"/>
<text x="509.0" y="367" fill="#d4fff0" font-family="monospace" font-size="20">Node.js</text>
<rect x="471.0" y="411" width="326.0" height="54" rx="8" fill="#03120c" stroke="#00ff9d" stroke-opacity=".22"/>
<circle cx="491.0" cy="438" r="5" fill="#00ff9d" filter="url(#glow)"/>
<text x="509.0" y="445" fill="#d4fff0" font-family="monospace" font-size="20">Express</text>
<rect x="471.0" y="489" width="326.0" height="54" rx="8" fill="#03120c" stroke="#00ff9d" stroke-opacity=".22"/>
<circle cx="491.0" cy="516" r="5" fill="#00ff9d" filter="url(#glow)"/>
<text x="509.0" y="523" fill="#d4fff0" font-family="monospace" font-size="20">MongoDB</text>
<path d="M862.0 205V760" stroke="#00ff9d" stroke-opacity=".18"/>
<text x="887.0" y="225" fill="#00ff9d" font-family="monospace" font-size="22" font-weight="700" letter-spacing="3">LANGUAGES</text>
<rect x="887.0" y="255" width="326.0" height="54" rx="8" fill="#03120c" stroke="#00ff9d" stroke-opacity=".22"/>
<circle cx="907.0" cy="282" r="5" fill="#00ff9d" filter="url(#glow)"/>
<text x="925.0" y="289" fill="#d4fff0" font-family="monospace" font-size="20">C++</text>
<rect x="887.0" y="333" width="326.0" height="54" rx="8" fill="#03120c" stroke="#00ff9d" stroke-opacity=".22"/>
<circle cx="907.0" cy="360" r="5" fill="#00ff9d" filter="url(#glow)"/>
<text x="925.0" y="367" fill="#d4fff0" font-family="monospace" font-size="20">JavaScript</text>
<rect x="887.0" y="411" width="326.0" height="54" rx="8" fill="#03120c" stroke="#00ff9d" stroke-opacity=".22"/>
<circle cx="907.0" cy="438" r="5" fill="#00ff9d" filter="url(#glow)"/>
<text x="925.0" y="445" fill="#d4fff0" font-family="monospace" font-size="20">Python</text>
<rect x="887.0" y="489" width="326.0" height="54" rx="8" fill="#03120c" stroke="#00ff9d" stroke-opacity=".22"/>
<circle cx="907.0" cy="516" r="5" fill="#00ff9d" filter="url(#glow)"/>
<text x="925.0" y="523" fill="#d4fff0" font-family="monospace" font-size="20">Kotlin</text>
<path d="M1278.0 205V760" stroke="#00ff9d" stroke-opacity=".18"/>
<text x="1303.0" y="225" fill="#00ff9d" font-family="monospace" font-size="22" font-weight="700" letter-spacing="3">ENGINEERING</text>
<rect x="1303.0" y="255" width="326.0" height="54" rx="8" fill="#03120c" stroke="#00ff9d" stroke-opacity=".22"/>
<circle cx="1323.0" cy="282" r="5" fill="#00ff9d" filter="url(#glow)"/>
<text x="1341.0" y="289" fill="#d4fff0" font-family="monospace" font-size="20">REST APIs</text>
<rect x="1303.0" y="333" width="326.0" height="54" rx="8" fill="#03120c" stroke="#00ff9d" stroke-opacity=".22"/>
<circle cx="1323.0" cy="360" r="5" fill="#00ff9d" filter="url(#glow)"/>
<text x="1341.0" y="367" fill="#d4fff0" font-family="monospace" font-size="20">Git / GitHub</text>
<rect x="1303.0" y="411" width="326.0" height="54" rx="8" fill="#03120c" stroke="#00ff9d" stroke-opacity=".22"/>
<circle cx="1323.0" cy="438" r="5" fill="#00ff9d" filter="url(#glow)"/>
<text x="1341.0" y="445" fill="#d4fff0" font-family="monospace" font-size="20">DSA</text>
<rect x="1303.0" y="489" width="326.0" height="54" rx="8" fill="#03120c" stroke="#00ff9d" stroke-opacity=".22"/>
<circle cx="1323.0" cy="516" r="5" fill="#00ff9d" filter="url(#glow)"/>
<text x="1341.0" y="523" fill="#d4fff0" font-family="monospace" font-size="20">Automation</text>
<text x="80" y="860" fill="#00ff9d" opacity=".7" font-family="monospace" font-size="16">ARISH096 // SYSTEM ONLINE // ENGINEERING WITH PURPOSE</text></svg>